<?xml version="1.0" encoding="iso-8859-1"?>
<!-- Generator: Adobe Illustrator 19.0.0, SVG Export Plug-In . SVG Version: 6.00 Build 0)  -->
<svg version="1.1" id="Layer_1" xmlns="http://www.w3.org/2000/svg" xmlns:xlink="http://www.w3.org/1999/xlink" x="0px" y="0px"
	 viewBox="0 0 512 512" style="enable-background:new 0 0 512 512;" xml:space="preserve">
<path style="fill:#FFCA54;" d="M115.601,324.529c-14.568,5.648-38.854,16.411-79.358,36.703
	c-70.502,35.325,35.075,22.561,59.22,107.712c31.753,111.981,80.777-24.443,95.804-71.499
	C158.13,382.395,131.469,356.267,115.601,324.529z"/>
<path style="fill:#F99830;" d="M68.547,387.967c31.302-15.682,52.91-25.667,67.84-32.006c-8.319-9.785-15.246-20.351-20.786-31.432
	c-14.568,5.648-38.854,16.411-79.358,36.703c-42.875,21.485-20.629,25.182,8.82,43.933
	C46.753,400.646,53.793,395.362,68.547,387.967z"/>
<path style="fill:#FFCA54;" d="M396.4,187.481c14.568-5.648,38.854-16.412,79.359-36.705c70.5-35.325-35.077-22.559-59.221-107.711
	c-31.753-111.981-80.777,24.445-95.803,71.5C353.733,129.552,380.463,155.605,396.4,187.481z"/>
<path style="fill:#F99830;" d="M408.098,19.692c-31.402-66.062-73.614,51.815-87.363,94.871
	c10.239,4.649,20.078,10.456,29.329,17.413C353.907,123.719,379.849,36.898,408.098,19.692z"/>
<path style="fill:#17DDC0;" d="M416.538,43.065c-19.772-69.728-46.24-43.137-67.028-1.785c1.874,3.515,1.775,4.215,5.352,21.069
	c2.1,9.887,2.586,18.787,10.088,24.982c0.517,0.733,4.427,3.252,8.301,4.329c1.698,0.598-0.236,0.128,28.96,6.325
	c1,0,7.53,1.913,11.154,5.815c4.518,3.91,5.312,10.154,5.813,11.154c5.471,25.764,5.753,33.825,13.441,40.046
	c0.514,0.755,4.635,3.381,8.617,4.418l11.898,2.528c6.918-3.361,14.433-7.069,22.622-11.17
	C546.259,115.451,440.683,128.217,416.538,43.065z"/>
<path style="fill:#0DBAA1;" d="M408.096,19.694c-11.853-24.367-24.665-25.038-39.983-7.979c-1.065,1.233-2.172,2.625-2.15,2.603
	c-5.71,7.219-11.259,16.63-16.453,26.961c1.874,3.515,1.775,4.215,5.352,21.069c2.1,9.887,2.586,18.787,10.088,24.982
	c0.051,0.072,1.153,0.892,1.225,0.943C377.633,59.552,392.768,29.034,408.096,19.694z"/>
<path style="fill:#17DDC0;" d="M95.463,468.944c20.877,73.625,49.22,39.868,70.455-5.267c-3.245-15.283-3.346-19.141-7.773-24.493
	c0,0-1.213-1.504-2.806-2.806c-0.526-0.741-4.443-3.26-8.302-4.329c-1.705-0.599,0.267-0.121-28.956-6.326
	c0,0-6.215-0.953-11.117-5.773c-3.762-3.699-5.853-9.717-5.853-11.195c-5.418-25.527-5.991-34.004-13.441-40.045
	c-0.419-0.68-4.555-3.356-8.616-4.418c-31.962-6.788-30.483-6.267-33.534-7.68c-2.995,1.484-6.077,3.02-9.276,4.62
	C-34.259,396.557,71.318,383.792,95.463,468.944z"/>
<path style="fill:#0DBAA1;" d="M12.353,380.331c-0.372,7.824,15.896,13.937,32.708,24.833c2.991-7.993,22.099-16.746,48.176-29.369
	c-1.473-2.96-3.502-5.409-5.569-7.086c-0.419-0.68-4.555-3.356-8.616-4.418c-32.222-6.843-30.635-6.338-33.534-7.68
	C34.138,362.254,12.741,371.968,12.353,380.331z"/>
<path style="fill:#FC3842;" d="M390.124,340.27c-53.902,85.888-173.367,99.024-244.66,27.73
	c-61.453-61.451-61.453-161.083,0-222.532c61.452-61.452,161.083-61.452,222.532-0.002c45.837,45.837,57.486,112.915,34.941,169.549
	"/>
<path style="fill:#EF2235;" d="M177.968,367.999c-93.822-93.819-35.931-254.252,95.015-267.776
	c-45.499-4.697-92.654,10.378-127.52,45.244c-61.453,61.451-61.453,161.083,0,222.532c34.866,34.866,82.02,49.942,127.52,45.244
	C238.288,409.661,204.553,394.585,177.968,367.999z"/>
<path style="fill:#FC6574;" d="M257.462,414.079c-8.137-38.163-7.394-39.497-13.943-46.045c-3.986-3.913-8.227-5.839-13.44-7.196
	c-33.488-7.111-37.636-6.959-44.081-13.3c-4.597-4.571-6.758-11.57-6.758-12.923c-6.702-31.572-6.805-37.103-13.09-43.916
	c-6.959-7.61-11.491-7.221-46.743-14.705c-4.107-1.059-15.243-5.205-18.276-19.486c0,0-0.087-0.407-1.574-7.405
	C95.204,339.311,167.346,414.498,257.462,414.079z"/>
<path style="fill:#FC304E;" d="M257.458,414.063c0,0,0.022,0.117-0.713-3.356C192.512,397.224,142.8,344.79,133.453,278.974
	l-14.045-2.981c-4.107-1.059-15.243-5.205-18.276-19.486c0,0-0.087-0.407-1.573-7.403c-0.057,0.503-0.143,4.28-0.152,4.793
	C97.955,343.029,170.287,414.801,257.458,414.063z"/>
<g>
	<path style="fill:#FC6574;" d="M414.045,260.118c2.024-94.735-79.372-169.565-173.484-159.902l13.905,2.951
		c0,0,0.001,0.004,0.002,0.002c14.283,3.032,18.429,14.169,19.488,18.278c7.987,37.621,7.332,39.406,14.259,46.327
		c3.819,3.643,8.001,5.537,13.115,6.873c32.251,6.845,38.209,7.069,44.171,13.39c2.881,2.928,5.436,7.048,6.664,12.828l0.001,0.002
		c6.756,31.821,6.71,38.159,14.606,45.432c0.741,0.667,0.934,0.813,0.934,0.813c6.32,5.233,8.777,4.838,44.293,12.376
		C412.56,259.632,413.257,259.84,414.045,260.118z"/>
	<path style="fill:#FC6574;" d="M300.865,289.119l-1.282-1.284c-3.264-3.263-3.264-8.552,0-11.816c3.26-3.262,8.552-3.262,11.814,0
		l1.284,1.283c3.263,3.265,3.263,8.553,0,11.816C309.422,292.379,304.133,292.386,300.865,289.119z"/>
	<path style="fill:#FC6574;" d="M286.693,271.487c-4.765,0-0.792,2.667-67.508-64.051c-3.263-3.262-3.263-8.55,0.001-11.815
		c3.262-3.261,8.553-3.261,11.816,0.001l61.599,61.602C297.881,262.503,294.069,271.487,286.693,271.487z"/>
	<path style="fill:#FC6574;" d="M280.88,317.457c-2.139,0-4.277-0.816-5.907-2.446l-61.71-61.711c-3.263-3.264-3.263-8.552,0-11.816
		c3.26-3.261,8.552-3.261,11.813,0l61.712,61.713C292.067,308.475,288.256,317.457,280.88,317.457z"/>
	<path style="fill:#FC6574;" d="M193.295,221.514c3.26-3.261,8.552-3.261,11.814,0l1.17,1.169c3.264,3.264,3.264,8.552,0,11.818
		C198.337,242.438,185.418,229.389,193.295,221.514z"/>
</g>
<g>
</g>
<g>
</g>
<g>
</g>
<g>
</g>
<g>
</g>
<g>
</g>
<g>
</g>
<g>
</g>
<g>
</g>
<g>
</g>
<g>
</g>
<g>
</g>
<g>
</g>
<g>
</g>
<g>
</g>
</svg>
