<?xml version="1.0" standalone="no"?>
<!DOCTYPE svg PUBLIC "-//W3C//DTD SVG 20010904//EN"
 "http://www.w3.org/TR/2001/REC-SVG-20010904/DTD/svg10.dtd">
<svg version="1.0" xmlns="http://www.w3.org/2000/svg"
 width="192.000000pt" height="192.000000pt" viewBox="0 0 192.000000 192.000000"
 preserveAspectRatio="xMidYMid meet">
<metadata>
Created by potrace 1.11, written by Peter Selinger 2001-2013
</metadata>
<g transform="translate(0.000000,192.000000) scale(0.100000,-0.100000)"
fill="#000000" stroke="none">
<path d="M1193 1909 c-79 -14 -141 -70 -186 -167 l-22 -47 -52 0 c-52 0 -53 1
-75 42 -62 113 -127 158 -228 158 -80 -1 -126 -22 -191 -87 -102 -103 -157
-298 -128 -454 8 -42 6 -51 -14 -78 -57 -76 -87 -157 -87 -236 0 -71 34 -113
136 -166 37 -19 87 -53 113 -75 25 -22 73 -56 107 -75 65 -36 63 -34 80 -134
3 -14 7 -38 11 -55 l6 -30 8 35 c4 19 11 55 14 80 3 24 7 45 8 46 1 1 25 -4
53 -11 43 -11 112 -23 137 -25 28 -1 -71 -307 -149 -462 -14 -27 -23 -52 -20
-55 3 -3 35 18 71 47 37 29 65 46 65 38 0 -23 -30 -131 -45 -160 -21 -44 -1
-33 52 27 64 74 114 164 141 256 31 103 37 156 37 309 0 1 18 3 40 6 22 3 64
12 93 19 50 13 52 12 56 -8 2 -12 10 -49 17 -82 l12 -60 15 92 15 91 56 28
c31 16 82 50 113 77 32 26 88 63 125 83 70 36 120 83 130 122 9 39 -6 133 -31
187 -13 27 -43 75 -66 105 l-44 54 1 97 c3 153 -44 283 -134 375 -77 79 -151
108 -240 93z"/>
</g>
</svg>
